<?xml version="1.0" encoding="UTF-8" standalone="no"?>
<svg
   xmlns:dc="http://purl.org/dc/elements/1.1/"
   xmlns:cc="http://creativecommons.org/ns#"
   xmlns:rdf="http://www.w3.org/1999/02/22-rdf-syntax-ns#"
   xmlns:svg="http://www.w3.org/2000/svg"
   xmlns="http://www.w3.org/2000/svg"
   viewBox="0 0 522.66669 250.66667"
   height="250.66667"
   width="522.66669"
   xml:space="preserve"
   id="svg2"
   version="1.1"><metadata
     id="metadata8"><rdf:RDF><cc:Work
         rdf:about=""><dc:format>image/svg+xml</dc:format><dc:type
           rdf:resource="http://purl.org/dc/dcmitype/StillImage" /></cc:Work></rdf:RDF></metadata><defs
     id="defs6" /><g
     transform="matrix(1.3333333,0,0,-1.3333333,0,250.66667)"
     id="g10"><g
       transform="scale(0.1)"
       id="g12"><path
         id="path14"
         style="fill:#ffffff;fill-opacity:1;fill-rule:nonzero;stroke:none"
         d="m 0,1880 h 265.199 c 0.102,-58.9 -0.097,-117.9 0.301,-176.8 -59.199,0 -118.301,0 -177.5,0 -0.1016,-32.2 -0.1016,-64.4 -0.1016,-96.5 0,-32.4 0,-64.7 0,-97.1 0,-32 0,-64.1 0.1016,-96.1 59.199,-0.2 118.301,-0.2 177.5,0 -0.398,-59.1 -0.199,-118.1 -0.199,-177.2 32.5,0 65,0 97.5,0 32.097,0 64.199,0 96.301,0 32.796,0 65.5,0 98.199,0 -0.102,59.1 0.097,118.2 -0.301,177.2 59.199,-0.3 118.398,-0.2 177.602,0 0,32.1 0,64.1 0,96.1 0,32.4 0,64.7 0,97 0,32.2 0,64.3 -0.102,96.5 -59.102,0.1 -118.301,0.1 -177.5,0.1 0.398,59 0.199,117.9 0.301,176.8 H 3920 V 362.801 c -1306.7,0 -2613.3,-0.102 -3920,0 v 82.597 c 26.6016,0 53.3008,0 79.8984,0 1.6016,85.301 -3.7968,170.903 3.4024,256 2.8008,38.403 21.5972,81.403 62.1992,91.903 33.398,7.301 74.898,9.301 101.602,-15.903 22.597,-22.597 22.699,-56.898 24.5,-86.597 0.5,-81.801 -0.301,-163.602 0,-245.403 27,0 54,0 80.898,0 -0.301,88.403 0.602,176.704 -0.102,265.102 -1.5,49.398 -13.199,105.5 -56.097,135.898 -68.5,45.301 -168.602,27.301 -216.9026,-39.398 1.1016,134.199 0.2032,268.4 0.5,402.6 -26.5976,0 -53.2968,0 -79.8984,0 L 0,1880" /><path
         id="path16"
         style="fill:#ae0040;fill-opacity:1;fill-rule:nonzero;stroke:none"
         d="m 265.199,1880 h 97.699 c -0.097,-91.1 0,-182.2 -0.097,-273.4 32.097,0 64.199,-0.1 96.398,-0.1 0,91.2 0,182.3 -0.097,273.5 h 98.199 c -0.102,-58.9 0.097,-117.8 -0.301,-176.8 -0.301,-32.2 -0.301,-64.3 -0.398,-96.6 59.398,-0.1 118.699,-0.1 178,0 0,-32.3 0,-64.6 0,-97 -59.301,0 -118.704,0.1 -178,0 0.097,-32 0.097,-64 0.398,-96.1 0.398,-59 0.199,-118.1 0.301,-177.2 -32.699,0 -65.403,0 -98.199,0 0.097,91.1 0,182.2 0.097,273.3 -32.097,0 -64.199,0 -96.398,0 0.097,-91.1 0.097,-182.2 0,-273.3 -32.5,0 -65,0 -97.5,0 0,59.1 -0.199,118.1 0.199,177.2 0.301,32 0.398,64.1 0.398,96.1 -59.296,0.1 -118.699,0.1 -177.9996,0 0,32.4 0,64.7 0,97.1 59.3006,-0.2 118.7036,-0.2 177.9996,-0.1 0,32.2 -0.097,64.4 -0.398,96.6 -0.398,58.9 -0.199,117.9 -0.301,176.8" /><path
         id="path18"
         style="fill:#a4a4a4;fill-opacity:1;fill-rule:nonzero;stroke:none"
         d="m 362.898,1880 h 96.204 c 0.097,-91.2 0.097,-182.3 0.097,-273.5 -32.199,0 -64.301,0.1 -96.398,0.1 0.097,91.2 0,182.3 0.097,273.4" /><path
         id="path20"
         style="fill:#a4a4a4;fill-opacity:1;fill-rule:nonzero;stroke:none"
         d="m 88,1703.2 c 59.199,0 118.301,0 177.5,0 0.301,-32.2 0.398,-64.4 0.398,-96.6 -59.296,-0.1 -118.699,-0.1 -177.9996,0.1 0,32.1 0,64.3 0.1016,96.5" /><path
         id="path22"
         style="fill:#a4a4a4;fill-opacity:1;fill-rule:nonzero;stroke:none"
         d="m 557,1703.2 c 59.199,0 118.398,0 177.5,-0.1 0.102,-32.2 0.102,-64.3 0.102,-96.5 -59.301,-0.1 -118.602,-0.1 -178,0 0.097,32.3 0.097,64.4 0.398,96.6" /><path
         id="path24"
         style="fill:#a4a4a4;fill-opacity:1;fill-rule:nonzero;stroke:none"
         d="m 87.8984,1509.6 c 59.3006,0.1 118.7036,0.1 177.9996,0 0,-32 -0.097,-64.1 -0.398,-96.1 -59.199,-0.2 -118.301,-0.2 -177.5,0 -0.1016,32 -0.1016,64.1 -0.1016,96.1" /><path
         id="path26"
         style="fill:#a4a4a4;fill-opacity:1;fill-rule:nonzero;stroke:none"
         d="m 362.801,1509.6 c 32.199,0 64.301,0 96.398,0 -0.097,-91.1 0,-182.2 -0.097,-273.3 -32.102,0 -64.204,0 -96.301,0 0.097,91.1 0.097,182.2 0,273.3" /><path
         id="path28"
         style="fill:#a4a4a4;fill-opacity:1;fill-rule:nonzero;stroke:none"
         d="m 556.602,1509.6 c 59.296,0.1 118.699,0 178,0 0,-32 0,-64 0,-96.1 -59.204,-0.2 -118.403,-0.3 -177.602,0 -0.301,32.1 -0.301,64.1 -0.398,96.1" /><path
         id="path30"
         style="fill:#00315c;fill-opacity:1;fill-rule:nonzero;stroke:none"
         d="m 0,1209.6 c 26.6016,0 53.3008,0 79.8984,0 -0.2968,-134.2 0.6016,-268.401 -0.5,-402.6 48.3006,66.699 148.4026,84.699 216.9026,39.398 42.898,-30.398 54.597,-86.5 56.097,-135.898 0.704,-88.398 -0.199,-176.699 0.102,-265.102 -26.898,0 -53.898,0 -80.898,0 -0.301,81.801 0.5,163.602 0,245.403 -1.801,29.699 -1.903,64 -24.5,86.597 -26.704,25.204 -68.204,23.204 -101.602,15.903 -40.602,-10.5 -59.3984,-53.5 -62.1992,-91.903 -7.1992,-85.097 -1.8008,-170.699 -3.4024,-256 -26.5976,0 -53.2968,0 -79.8984,0 L 0,1209.6" /><path
         id="path32"
         style="fill:#00315c;fill-opacity:1;fill-rule:nonzero;stroke:none"
         d="m 1383.4,1209.6 c 27.2,0 54.3,0 81.5,0 0,-254.799 0,-509.498 0,-764.202 -27.2,0 -54.3,0 -81.4,0 -0.1,254.704 0,509.403 -0.1,764.202" /><path
         id="path34"
         style="fill:#00315c;fill-opacity:1;fill-rule:nonzero;stroke:none"
         d="m 1786.4,1209.5 c 27.4,0 54.8,0.1 82.3,0.1 -0.3,-134.1 0.5,-268.1 -0.5,-402.1 47.9,67 149,84 216.8,38.5 45.3,-32.898 54.4,-93 56.6,-145.102 1.5,-85.097 0.1,-170.296 0.6,-255.398 -27.8,-0.102 -55.6,-0.102 -83.4,0 -0.4,88.398 0.8,176.801 -0.4,265.102 -0.4,32.097 -12.2,69.898 -45.7,81.199 -41.8,12.301 -97.9,9.301 -123.3,-31.699 -21.3,-36 -20.4,-79.602 -20.9,-120.102 0.2,-64.898 0.1,-129.699 0.2,-194.602 -27.5,0 -54.9,0 -82.2,0 0,254.704 0,509.403 -0.1,764.102" /><path
         id="path36"
         style="fill:#ae0040;fill-opacity:1;fill-rule:nonzero;stroke:none"
         d="m 3605.1,1172.1 c 10.3,0 30.9,0 41.2,0 0.1,-163.1 0,-326.1 0.1,-489.202 54.8,56.5 110.2,112.403 164.5,169.301 18.1,0.301 36.1,0.301 54.2,0.5 -56.6,-59.199 -113.9,-117.801 -170.8,-176.597 73.3,-77.102 153.3,-148 221.9,-229.301 -16,-0.801 -31.9,-1.403 -47.9,-1.903 -66.8,67.403 -134.2,134.301 -200.4,202.301 -5.4,-5 -16.1,-15.199 -21.5,-20.301 -0.1,-60.5 0,-121 0,-181.597 -13.9,0.097 -27.6,0.097 -41.3,0.097 0,242.204 0,484.5 0,726.702" /><path
         id="path38"
         style="fill:#00315c;fill-opacity:1;fill-rule:nonzero;stroke:none"
         d="m 1586.9,1015.8 c 27.2,0 54.4,0 81.7,0 0,-52.601 0,-105.198 0,-157.902 26.1,0 52.2,0 78.3,0 0,-24.898 0,-49.898 0,-75 -26.1,0 -52.2,0.102 -78.3,0.102 0,-112.602 -0.1,-225.102 0,-337.602 -27.2,0 -54.5,0 -81.7,0 0,112.5 0,225 0,337.5 -14.6,0.102 -29.1,0.102 -43.7,0.102 0,25 0,50 0.1,75 14.5,0 29,0 43.6,-0.102 0,52.602 0,105.301 0,157.902" /><path
         id="path40"
         style="fill:#ae0040;fill-opacity:1;fill-rule:nonzero;stroke:none"
         d="m 2266.5,997.5 c 13.4,0.102 26.8,0.102 40.3,0.102 0,-48.301 0,-96.704 0,-145 23.7,0 47.5,0 71.3,0 0,-12.704 0.2,-25.5 0.3,-38.301 -23.9,0.097 -47.8,0.097 -71.6,0.097 0,-123.097 0,-246.097 0,-369.097 -10.1,0 -30.3,0.097 -40.3,0.199 0,123 0,245.898 0,368.898 -15.1,0 -30.1,0 -45.2,0 0.1,9.5 0.3,28.704 0.4,38.204 14.9,0 29.8,0 44.8,-0.102 0,48.398 0,96.699 0,145" /><path
         id="path42"
         style="fill:#00315c;fill-opacity:1;fill-rule:nonzero;stroke:none"
         d="m 1029.6,869.602 c 66.6,11.199 131.8,-25.602 169.4,-79.204 -0.4,22.5 -0.5,45 -0.5,67.602 26.6,0 53.3,0 80,0 -0.1,-137.5 0,-275.102 0,-412.602 -26.7,0 -53.4,0 -80,0 0,21 0,42 0.4,63 -24,-28.699 -51.6,-56.597 -87.9,-68.699 C 1042.2,417 960.102,437.898 913.199,494 c -59.097,69.801 -70.5,174.102 -35.398,257.5 25.699,62.102 84.097,110.801 151.799,118.102" /><path
         id="path44"
         style="fill:#00315c;fill-opacity:1;fill-rule:nonzero;stroke:none"
         d="M 456.301,773.801 C 513.699,889.5 696.5,905.398 777.102,806.898 815.801,759.801 824.5,696.699 825.301,637.699 c -105.699,-0.5 -211.403,0.602 -317,-0.699 5.199,-35.199 14.097,-72.398 40.699,-98.102 40.699,-44.398 116.199,-47.5 162.199,-9.5 18.102,15 31.403,34.602 45.403,53.204 23.699,-12.5 47.097,-25.5 70.097,-39.301 -31.5,-48.699 -77,-90.199 -134.301,-104.801 C 622,420 539.199,433.398 487.801,487.898 c -71.602,74.801 -76.199,196.204 -31.5,285.903" /><path
         id="path46"
         style="fill:#ae0040;fill-opacity:1;fill-rule:nonzero;stroke:none"
         d="m 2485.6,801.602 c 16.2,23.597 34,50.296 63.9,56.699 23.7,8.5 48.4,-0.5 72,-4.5 -7,-11.903 -14,-23.903 -21,-35.903 -23.9,3.602 -50.8,9.204 -71.9,-6.199 -34.8,-24.898 -39.4,-72.097 -41.6,-111.398 -1.5,-85 -0.1,-170 -0.6,-255 -10,0 -30.1,0.097 -40.2,0.097 0,135.704 -0.1,271.403 0.1,407.102 10,0 30.2,0 40.3,0.102 -0.2,-17 -0.5,-34 -1,-51" /><path
         id="path48"
         style="fill:#ae0040;fill-opacity:1;fill-rule:nonzero;stroke:none"
         d="m 2667.5,741.602 c 22.8,60 78,105.898 141.4,116.398 73.8,16.398 154.3,-13.398 200,-73.5 -0.4,22.602 -0.5,45.301 -0.4,67.898 14,0.102 27.9,0.204 42,0.204 0,-135.801 0,-271.602 -0.1,-407.403 -14,0.199 -28,0.301 -42,0.5 0,23.301 0.1,46.602 0.7,69.903 -63.7,-93.102 -210.2,-106.204 -291.2,-28.903 -68.4,63.301 -83.1,170.199 -50.4,254.903" /><path
         id="path50"
         style="fill:#ae0040;fill-opacity:1;fill-rule:nonzero;stroke:none"
         d="m 3223.1,816.898 c 78.3,63.204 197.6,58 275,-4.199 -0.2,-18.5 -0.3,-37.097 -0.2,-55.699 -36.7,36.898 -84.5,66.301 -138.1,65.801 -79.2,4.801 -152.5,-56.199 -169.3,-132.403 -23.4,-89.5 36.2,-193 128.1,-211.898 69.1,-16 138.5,18.5 184.8,68.398 -0.4,-18.796 -0.5,-37.699 -0.5,-56.597 -39.1,-28.102 -83.7,-51.301 -132.7,-53.602 -76.6,-6.801 -156.5,31.5 -194.9,98.903 -54.1,88.898 -35.7,216.796 47.8,281.296" /><path
         id="path52"
         style="fill:#ffffff;fill-opacity:1;fill-rule:nonzero;stroke:none"
         d="m 2803.3,815.699 c 64.7,20.699 142.8,-3.301 179.9,-61.5 52,-80.097 32.6,-203.199 -48.5,-256.898 -68.2,-43.102 -167.9,-22.801 -210.8,46.5 -63.1,89.301 -28.6,236 79.4,271.898" /><path
         id="path54"
         style="fill:#ffffff;fill-opacity:1;fill-rule:nonzero;stroke:none"
         d="m 550.898,768.898 c 43.102,41.704 122.5,41.704 162.602,-4.296 16.398,-18.704 23.199,-43 31.5,-65.903 -77.602,-0.199 -155.199,-0.398 -232.801,0.102 9,25.097 18.301,51.699 38.699,70.097" /><path
         id="path56"
         style="fill:#ffffff;fill-opacity:1;fill-rule:nonzero;stroke:none"
         d="m 1034.1,793.398 c 44.2,11.5 95.5,1.704 127.3,-32.699 52.6,-56.199 54.1,-150.801 7.7,-211.199 -39.5,-51.301 -121.2,-61.699 -172.702,-22.898 -87.796,66 -72.398,233.199 37.702,266.796" /><path
         id="path58"
         style="fill:#00315c;fill-opacity:1;fill-rule:nonzero;stroke:none"
         d="m 0,362.801 c 1306.7,-0.102 2613.3,0 3920,0 V 0 H 0 v 362.801" /><path
         id="path60"
         style="fill:#ffffff;fill-opacity:1;fill-rule:nonzero;stroke:none"
         d="m 159.699,287.699 c 7.5,-0.301 22.301,-1 29.699,-1.301 17.5,-49 35.903,-97.597 54.301,-146.199 18.199,48.903 35.5,98.102 53,147.199 9.903,-0.097 19.801,-0.199 29.801,-0.199 10.699,-74.301 21.898,-148.5 32.398,-222.8982 C 345.199,64.1992 331.602,64.1016 318,64.1016 311.801,110.699 306.398,157.301 299.5,203.801 278.301,154 267.398,99.6992 239.5,52.8008 218.102,101.898 202.699,153.301 185.602,203.898 176.602,157.602 170.699,110.801 163.801,64 c -10.199,0 -30.602,0 -40.903,0 11.903,74.699 24.403,149.199 36.801,223.699" /><path
         id="path62"
         style="fill:#ffffff;fill-opacity:1;fill-rule:nonzero;stroke:none"
         d="m 1207.1,272.398 c 31,21.301 70.8,16.801 104.2,4.602 0.1,-11.301 0.2,-34.102 0.3,-45.398 -21.4,11.796 -46.1,23.5 -70.9,14.296 -58.5,-23.199 -59.7,-122.097 -0.7,-145.398 24.9,-11.8008 50.2,3.199 71.8,14.801 -0.2,-15.5002 -0.4,-31.0002 -0.6,-46.5002 -36.6,-14.1992 -80.6,-16.6992 -112.3,10 -63.2,45.5002 -58.1,153.3982 8.2,193.5972" /><path
         id="path64"
         style="fill:#ffffff;fill-opacity:1;fill-rule:nonzero;stroke:none"
         d="m 1502.3,287 c 10.6,0.199 21.2,0.398 31.9,0.602 28,-74.5 55.6,-149.102 83.1,-223.8012 -14.7,0.1992 -29.4,0.5 -44.1,0.8008 -5.1,14.5976 -10.1,29.1992 -15.2,43.7964 -26.9,0.301 -53.8,0.301 -80.6,0.204 -5.7,-14.7036 -11.4,-29.5004 -17.1,-44.3012 -14.2,-0.1016 -28.5,-0.1992 -42.7,-0.3008 27.9,74.398 56.4,148.602 84.7,223" /><path
         id="path66"
         style="fill:#ffffff;fill-opacity:1;fill-rule:nonzero;stroke:none"
         d="m 1728.1,281.699 c 13.4,0.102 26.7,0.102 40.1,0.102 -0.1,-60.199 0.1,-120.301 -0.1,-180.403 21.2,-1.7964 42.6,-2.9996 63.9,-4.2964 C 1830.6,86 1829.3,75 1828.1,63.8984 c -33.3,0.2032 -66.6,0.2032 -100,0.2032 0,72.5974 0,145.0974 0,217.5974" /><path
         id="path68"
         style="fill:#ffffff;fill-opacity:1;fill-rule:nonzero;stroke:none"
         d="m 2128.4,189.301 c -25.5,34.801 -1.7,91.597 41.1,97.398 25.1,4.699 48.3,-8.097 70.8,-17 -4.2,-9.898 -9.2,-19.398 -15.1,-28.398 -22.5,14.301 -70.8,20.398 -63.6,-19.699 15.9,-27.204 58.2,-26.602 76.5,-53.5 25.5,-40.102 1.8,-104.3012 -48.2,-109.8012 -33.9,-7.8008 -61.3,16.3984 -81.7,39.8984 8.1,7.6018 16.1,14.9998 24.2,22.4998 13.9,-10.199 26.1,-29.0974 45.6,-26.8982 23.3,-1.1992 33.3,28.8982 25.5,47.5002 -20.9,22 -55.2,24.699 -75.1,48" /><path
         id="path70"
         style="fill:#ffffff;fill-opacity:1;fill-rule:nonzero;stroke:none"
         d="m 2646.3,185.5 c -29.5,32.602 -7.9,92 34.6,100.5 27,7 52.3,-6.801 75.4,-18.898 -4.2,-6.5 -12.5,-19.5 -16.7,-26 -23.9,16.796 -69.2,18.796 -65.2,-21.602 22.2,-21.398 55.5,-26.301 76.5,-48.898 31.8,-40.602 2,-110.0004 -50.4,-112.8012 -32,-5.6016 -57.4,17.5 -77,39.3984 7.8,8.1988 15.7,16.3008 23.6,24.4998 C 2663.6,103 2684.4,89 2710.6,94.6992 2715.3,107.898 2720.1,121 2725,134 c -21.2,24.5 -54.4,31.398 -78.7,51.5" /><path
         id="path72"
         style="fill:#ffffff;fill-opacity:1;fill-rule:nonzero;stroke:none"
         d="m 3370.7,287.699 c 7.3,-0.301 22.1,-0.898 29.4,-1.199 17.4,-49.102 36,-97.801 54.7,-146.398 17.8,49 35.1,98.097 52.7,147.199 9.9,0 19.8,0 29.8,0.097 10.5,-74.398 22.3,-148.597 32,-222.9996 -13.5,-0.1992 -27,-0.2968 -40.5,-0.5 -6.2,46.9026 -11.8,93.8006 -18.5,140.6016 -18.9,-47.102 -31.9,-96.5 -53,-142.6016 -2.6,-0.5 -7.8,-1.5 -10.4,-2.0976 -19.6,47.0972 -33.9,96.0972 -50.8,144.0972 -8.4,-46.398 -14.5,-93.199 -21.7,-139.898 -10.1,0.1016 -30.5,0.1016 -40.7,0.1016 12.2,74.5974 24.1,149.1994 37,223.5974" /><path
         id="path74"
         style="fill:#ffffff;fill-opacity:1;fill-rule:nonzero;stroke:none"
         d="m 3719.3,281 c 28.9,15.699 61,0.301 88.3,-11.301 -5,-9.301 -10,-18.699 -14.9,-28.097 -16.9,5.296 -34,9.796 -51.2,13.699 -4.7,-7 -14,-21 -18.7,-28 18.9,-28.602 56.5,-32.102 79.2,-56.102 30.1,-37.801 7,-104.3982 -42,-112.199 -34.7,-9.8008 -64,14.3984 -85,38.6992 8.2,7.8008 16.4,15.4028 24.7,23.1018 15.2,-20.699 55.5,-43.6018 69.6,-10.102 19.3,38.5 -30.8,49 -55,63.301 -43.8,20.102 -35.7,88.199 5,107" /><path
         id="path76"
         style="fill:#ffffff;fill-opacity:1;fill-rule:nonzero;stroke:none"
         d="m 474.699,64.1016 c 0,72.5004 0,145.0974 0,217.6994 37.602,0 75.199,0 112.801,-0.102 0,-8.699 0,-26.097 0,-34.801 -24.102,0 -48.199,0 -72.301,0 0.102,-16.699 0,-33.296 0,-50 23.102,0 46.199,0 69.199,0 0,-11.699 0.102,-23.5 0.102,-35.296 -23.102,0 -46.102,0 -69.199,-0.102 0,-20.898 0,-41.898 0.097,-62.8984 24,0 48.102,0 72.102,0 0,-11.5 0,-23 0,-34.5 -37.602,0 -75.199,0 -112.801,0" /><path
         id="path78"
         style="fill:#ffffff;fill-opacity:1;fill-rule:nonzero;stroke:none"
         d="m 712.898,281.801 c 42.5,-1 91.301,7.301 126.801,-22.102 C 892.801,216.5 891.398,123.699 835.398,83.5 800.398,56.3008 754,65.5 713,64 c -0.102,72.602 0,145.199 -0.102,217.801" /><path
         id="path80"
         style="fill:#ffffff;fill-opacity:1;fill-rule:nonzero;stroke:none"
         d="m 996,281.801 c 10.2,0 30.7,-0.102 41,-0.102 0,-72.5 0,-145.097 0,-217.699 -13.7,0.1016 -27.4,0.1016 -41,0.1016 0,72.5974 0,145.0974 0,217.6994" /><path
         id="path82"
         style="fill:#ffffff;fill-opacity:1;fill-rule:nonzero;stroke:none"
         d="m 2348,281.602 c 15.5,0.097 31.1,0.296 46.6,0.398 13.3,-26.102 26.5,-52.199 39.8,-78.199 14.5,26 28.7,52.097 43.2,78.097 15.7,-0.097 31.4,-0.199 47.2,-0.296 -22,-40 -49.2,-77.301 -67.3,-119.204 -2.6,-32.699 -0.8,-65.5972 -0.9,-98.2964 -13.8,0 -27.6,0 -41.3,0 -1,34.1992 3.6,69.1994 -2.6,103.0004 -19.3,39.296 -43.7,76 -64.7,114.5" /><path
         id="path84"
         style="fill:#ffffff;fill-opacity:1;fill-rule:nonzero;stroke:none"
         d="m 2866.7,281.699 c 43.4,0.102 86.8,0.102 130.3,0.102 0,-8.801 0,-26.199 0,-34.903 -15.1,0 -30.2,0 -45.2,0 0,-60.898 -0.1,-121.796 0,-182.7964 -13.5,0 -26.9,0 -40.2,0 0,60.7964 0,121.6994 -0.1,182.5974 -15,0.102 -29.9,0.199 -44.9,0.301 0.1,8.699 0.1,26.102 0.1,34.699" /><path
         id="path86"
         style="fill:#ffffff;fill-opacity:1;fill-rule:nonzero;stroke:none"
         d="m 3108,281.699 c 37.5,0.102 75,0.102 112.5,0 0,-8.699 -0.1,-26 -0.1,-34.699 -23.7,0 -47.5,-0.102 -71.2,-0.398 0,-16.5 0,-33 0,-49.602 22.9,-0.102 45.8,-0.102 68.7,-0.102 -0.1,-11.796 -0.1,-23.597 0,-35.398 -22.9,0.102 -45.7,0.102 -68.4,0.102 -0.1,-21 0.3,-42 0.8,-63.0004 23.3,0.0976 46.7,0 70.1,-0.2032 0,-11.3984 0,-22.7968 0.1,-34.1992 C 3183,64 3145.5,64 3108,64.3008 c 0,72.5002 0,144.8982 0,217.3982" /><path
         id="path88"
         style="fill:#00315c;fill-opacity:1;fill-rule:nonzero;stroke:none"
         d="m 753.301,249.199 c 24.097,-3.801 53.199,-4.301 68.898,-26.301 19.5,-28.296 18.801,-68.597 1.602,-97.796 -15,-24.102 -46,-23.801 -70.699,-28.9028 -0.903,50.9998 -1.102,101.9998 0.199,152.9998" /><path
         id="path90"
         style="fill:#00315c;fill-opacity:1;fill-rule:nonzero;stroke:none"
         d="m 1489.5,142.398 c 8.7,28.801 17.6,57.5 27.5,86 9.4,-28.898 19.1,-57.597 29,-86.296 -18.9,0.097 -37.7,0.199 -56.5,0.296" /></g></g></svg>